<svg width="48" height="49" viewBox="0 0 48 49" fill="none" xmlns="http://www.w3.org/2000/svg">
<path d="M22 0.5H10C4.478 0.5 0 4.978 0 10.5V32.5H32V10.5C32 4.978 27.522 0.5 22 0.5ZM24.464 16.128L18.208 22.848C17.128 23.932 15.756 24.498 14.298 24.498C12.84 24.498 11.47 23.93 10.438 22.9L7.584 20.044C6.802 19.262 6.802 17.996 7.584 17.216C8.366 16.434 9.63 16.434 10.412 17.216L13.266 20.07C13.818 20.622 14.78 20.62 15.328 20.07L21.534 13.402C22.29 12.594 23.554 12.55 24.362 13.3C25.17 14.052 25.216 15.32 24.464 16.128ZM0 36.496V39.496C0 44.466 4.032 48.496 9.002 48.496H23.002C27.972 48.496 32.002 44.466 32.002 39.496V36.496H0ZM18 44.496H14C12.896 44.496 12 43.602 12 42.496C12 41.39 12.896 40.496 14 40.496H18C19.104 40.496 20 41.39 20 42.496C20 43.602 19.104 44.496 18 44.496ZM48 14.5H36V6.5H41C44.866 6.5 48 9.634 48 13.5V14.5ZM48 18.5V25.5C48 29.366 44.866 32.5 41 32.5H36V18.5H48Z" fill="#FF6B00"/>
</svg>
