<svg width="48" height="49" viewBox="0 0 48 49" fill="none" xmlns="http://www.w3.org/2000/svg">
<g clip-path="url(#clip0_98_2601)">
<path d="M37.162 4.78048L24.632 0.602482C24.2217 0.465839 23.7783 0.465839 23.368 0.602482L10.838 4.78048C8.84581 5.44224 7.11283 6.715 5.88529 8.4179C4.65775 10.1208 3.99808 12.1673 4 14.2665V24.5005C4 39.6265 22.4 47.9805 23.188 48.3285C23.4436 48.4421 23.7203 48.5007 24 48.5007C24.2797 48.5007 24.5564 48.4421 24.812 48.3285C25.6 47.9805 44 39.6265 44 24.5005V14.2665C44.0019 12.1673 43.3423 10.1208 42.1147 8.4179C40.8872 6.715 39.1542 5.44224 37.162 4.78048ZM33.436 19.9345L24.892 28.4785C24.5424 28.8305 24.1263 29.1095 23.668 29.2993C23.2096 29.4892 22.7181 29.5861 22.222 29.5845H22.156C21.6498 29.5767 21.1504 29.4664 20.688 29.2601C20.2257 29.0539 19.81 28.756 19.466 28.3845L14.854 23.5845C14.6543 23.3992 14.4945 23.175 14.3845 22.9257C14.2745 22.6764 14.2166 22.4073 14.2144 22.1349C14.2121 21.8624 14.2656 21.5924 14.3714 21.3413C14.4773 21.0903 14.6333 20.8635 14.8299 20.6749C15.0266 20.4863 15.2597 20.3399 15.515 20.2446C15.7702 20.1493 16.0423 20.1072 16.3144 20.1208C16.5865 20.1345 16.853 20.2036 17.0974 20.3239C17.3419 20.4442 17.5592 20.6132 17.736 20.8205L22.224 25.5005L30.6 17.1005C30.9772 16.7362 31.4824 16.5346 32.0068 16.5391C32.5312 16.5437 33.0328 16.754 33.4036 17.1248C33.7745 17.4957 33.9848 17.9973 33.9894 18.5217C33.9939 19.0461 33.7923 19.5513 33.428 19.9285L33.436 19.9345Z" fill="#FF6B00"/>
</g>
<defs>
<clipPath id="clip0_98_2601">
<rect width="48" height="48" fill="white" transform="translate(0 0.5)"/>
</clipPath>
</defs>
</svg>
