<svg width="48" height="49" viewBox="0 0 48 49" fill="none" xmlns="http://www.w3.org/2000/svg">
<path d="M15.884 40.5C15.952 40.824 16 41.156 16 41.5C16 44.262 13.762 46.5 11 46.5C8.238 46.5 6 44.262 6 41.5C6 41.156 6.048 40.824 6.116 40.5H15.884ZM34.114 40.5C34.046 40.824 33.998 41.156 33.998 41.5C33.998 44.262 36.236 46.5 38.998 46.5C41.76 46.5 43.998 44.262 43.998 41.5C43.998 41.156 43.95 40.824 43.882 40.5H34.114ZM29.998 8.5V36.5H0V8.5C0 5.186 2.686 2.5 6 2.5H24C27.314 2.5 30 5.186 30 8.5H29.998ZM21.582 19.784C21.094 19.02 20.264 18.566 19.358 18.566H12.94L17.392 10.464L13.886 8.538L8.28 18.744C7.868 19.568 7.91 20.53 8.396 21.312C8.882 22.098 9.722 22.566 10.644 22.566H16.956L12.222 30.474L15.656 32.528L21.754 22.318C22.134 21.496 22.07 20.548 21.582 19.784ZM37.998 10.5H33.998V22.5H47.998V20.5C47.998 14.986 43.512 10.5 37.998 10.5ZM33.998 36.5H47.998V26.5H33.998V36.5Z" fill="#FF6B00"/>
</svg>
