<svg width="48" height="49" viewBox="0 0 48 49" fill="none" xmlns="http://www.w3.org/2000/svg">
<g clip-path="url(#clip0_98_2607)">
<path d="M7.2761 18.4998C6.0401 18.4998 5.0801 17.3838 5.2981 16.1678C6.0161 12.1658 8.0101 8.44582 11.0081 5.63582C14.8781 2.00582 19.9321 0.19582 25.2601 0.54182C35.3021 1.18982 43.1461 9.93182 42.9981 20.3758C42.9181 26.0118 38.2201 30.5018 32.5821 30.5018H26.7181C25.9981 31.1938 25.0261 31.6238 23.9501 31.6238C21.7401 31.6238 19.9501 29.8338 19.9501 27.6238C19.9501 25.4138 21.7401 23.6238 23.9501 23.6238C25.7661 23.6238 27.2821 24.8418 27.7701 26.5018H32.5821C36.0541 26.5018 38.9601 23.7358 38.9981 20.2658C39.0901 11.9738 32.9081 5.04782 25.0021 4.53582C20.8041 4.27582 16.8001 5.69182 13.7421 8.55782C11.3241 10.8238 9.7661 13.7258 9.2201 16.9138C9.0601 17.8458 8.2201 18.5038 7.2761 18.5038V18.4998ZM24.0001 34.4998C16.6101 34.4998 10.2161 39.0838 8.0901 45.9038C7.9001 46.5118 8.0101 47.1738 8.3881 47.6858C8.7661 48.1978 9.3641 48.4998 10.0001 48.4998H38.0001C38.6361 48.4998 39.2341 48.1978 39.6121 47.6858C39.9901 47.1738 40.1001 46.5118 39.9101 45.9038C37.7841 39.0838 31.3901 34.4998 24.0001 34.4998ZM29.8681 22.4998H34.5761C34.8461 21.5458 35.0001 20.5418 35.0001 19.4998C35.0001 13.4238 30.0761 8.49982 24.0001 8.49982C17.9241 8.49982 13.0001 13.4238 13.0001 19.4998C13.0001 22.4818 14.1921 25.1818 16.1181 27.1638C16.3601 23.0318 19.7561 19.7458 23.9501 19.7458C26.3321 19.7458 28.4321 20.8278 29.8701 22.4998H29.8681Z" fill="#FF6B00"/>
</g>
<defs>
<clipPath id="clip0_98_2607">
<rect width="48" height="48" fill="white" transform="translate(0 0.5)"/>
</clipPath>
</defs>
</svg>
